<?xml version="1.0" encoding="UTF-8"?><svg id="a" xmlns="http://www.w3.org/2000/svg" width="384.1" height="128" viewBox="0 0 384.1 128"><path d="M56.96,10.85l-28.3,13.2c-.57,.27-1.05,.71-1.36,1.27l-15.14,27.31c-.31,.55-.43,1.19-.35,1.82l3.81,30.99c.08,.63,.35,1.22,.78,1.68l21.3,22.84c.43,.46,1,.78,1.62,.9l30.65,5.96c.62,.12,1.27,.04,1.84-.23l28.3-13.2c.57-.27,1.05-.71,1.36-1.27l15.14-27.31c.31-.55,.43-1.19,.35-1.82l-3.81-30.99c-.08-.63-.35-1.22-.78-1.68l-21.3-22.84c-.43-.46-1-.78-1.62-.9l-30.65-5.96c-.62-.12-1.27-.04-1.84,.23Z" fill="#47ae4c" opacity=".85"/><path d="M57.37,84.09l-8.14-5.29c-.64-.42-1.15-1.01-1.47-1.71l-4.02-8.9c-.31-.69-.42-1.46-.32-2.21l1.38-9.69c.11-.75,.43-1.46,.92-2.04l6.34-7.39c.5-.58,1.16-1.01,1.9-1.23l9.28-2.75c.74-.22,1.53-.22,2.28,0l9.28,2.75c.74,.22,1.4,.65,1.9,1.23l6.34,7.39c.5,.58,.82,1.29,.92,2.04l1.38,9.69c.11,.75,0,1.52-.32,2.21l-4.02,8.9c-.32,.7-.82,1.29-1.47,1.71l-8.14,5.29c-.65,.42-1.41,.65-2.18,.65h-9.68c-.77,0-1.53-.22-2.18-.65Z"/><path d="M65.53,46.34l7.4,2.2c.74,.22,1.4,.65,1.9,1.23l5.07,5.91c.5,.58,.82,1.29,.92,2.04l1.11,7.77c.11,.75,0,1.52-.32,2.21l-3.22,7.13c-.32,.7-.83,1.29-1.47,1.71l-6.5,4.22c-.65,.42-1.41,.65-2.18,.65h-7.71c-.77,0-1.53-.22-2.18-.65l-6.5-4.22c-.64-.42-1.15-1.01-1.47-1.71l-3.22-7.13c-.31-.69-.42-1.46-.32-2.21l1.11-7.77c.11-.75,.43-1.46,.92-2.04l5.07-5.91c.5-.58,1.16-1.01,1.9-1.23l7.4-2.2c.74-.22,1.53-.22,2.28,0Z" fill="#a67c52"/><path d="M184.96,10.85l-28.3,13.2c-.57,.27-1.05,.71-1.36,1.27l-15.14,27.31c-.31,.55-.43,1.19-.35,1.82l3.81,30.99c.08,.63,.35,1.22,.78,1.68l21.3,22.84c.43,.46,1,.78,1.62,.9l30.65,5.96c.62,.12,1.27,.04,1.84-.23l28.3-13.2c.57-.27,1.05-.71,1.36-1.27l15.14-27.31c.31-.55,.43-1.19,.35-1.82l-3.81-30.99c-.08-.63-.35-1.22-.78-1.68l-21.3-22.84c-.43-.46-1-.78-1.62-.9l-30.65-5.96c-.62-.12-1.27-.04-1.84,.23Z" fill="#009245" opacity=".85"/><path d="M185.37,84.09l-8.14-5.29c-.64-.42-1.15-1.01-1.47-1.71l-4.02-8.9c-.31-.69-.42-1.46-.32-2.21l1.38-9.69c.11-.75,.43-1.46,.92-2.04l6.34-7.39c.5-.58,1.16-1.01,1.9-1.23l9.28-2.75c.74-.22,1.53-.22,2.28,0l9.28,2.75c.74,.22,1.4,.65,1.9,1.23l6.34,7.39c.5,.58,.82,1.29,.92,2.04l1.38,9.69c.11,.75,0,1.52-.32,2.21l-4.02,8.9c-.32,.7-.82,1.29-1.47,1.71l-8.14,5.29c-.65,.42-1.41,.65-2.18,.65h-9.68c-.77,0-1.53-.22-2.18-.65Z"/><path d="M193.53,46.34l7.4,2.2c.74,.22,1.4,.65,1.9,1.23l5.07,5.91c.5,.58,.82,1.29,.92,2.04l1.11,7.77c.11,.75,0,1.52-.32,2.21l-3.22,7.13c-.32,.7-.83,1.29-1.47,1.71l-6.5,4.22c-.65,.42-1.41,.65-2.18,.65h-7.71c-.77,0-1.53-.22-2.18-.65l-6.5-4.22c-.64-.42-1.15-1.01-1.47-1.71l-3.22-7.13c-.31-.69-.42-1.46-.32-2.21l1.11-7.77c.11-.75,.43-1.46,.92-2.04l5.07-5.91c.5-.58,1.16-1.01,1.9-1.23l7.4-2.2c.74-.22,1.53-.22,2.28,0Z" fill="#a67c52"/><path d="M312.96,10.85l-28.3,13.2c-.57,.27-1.05,.71-1.36,1.27l-15.14,27.31c-.31,.55-.43,1.19-.35,1.82l3.81,30.99c.08,.63,.35,1.22,.78,1.68l21.3,22.84c.43,.46,1,.78,1.62,.9l30.65,5.96c.62,.12,1.27,.04,1.84-.23l28.3-13.2c.57-.27,1.05-.71,1.36-1.27l15.14-27.31c.31-.55,.43-1.19,.35-1.82l-3.81-30.99c-.08-.63-.35-1.22-.78-1.68l-21.3-22.84c-.43-.46-1-.78-1.62-.9l-30.65-5.96c-.62-.12-1.27-.04-1.84,.23Z" fill="#026838" opacity=".85"/><path d="M313.37,84.09l-8.14-5.29c-.64-.42-1.15-1.01-1.47-1.71l-4.02-8.9c-.31-.69-.42-1.46-.32-2.21l1.38-9.69c.11-.75,.43-1.46,.92-2.04l6.34-7.39c.5-.58,1.16-1.01,1.9-1.23l9.28-2.75c.74-.22,1.53-.22,2.28,0l9.28,2.75c.74,.22,1.4,.65,1.9,1.23l6.34,7.39c.5,.58,.82,1.29,.92,2.04l1.38,9.69c.11,.75,0,1.52-.32,2.21l-4.02,8.9c-.32,.7-.82,1.29-1.47,1.71l-8.14,5.29c-.65,.42-1.41,.65-2.18,.65h-9.68c-.77,0-1.53-.22-2.18-.65Z"/><path d="M321.53,46.34l7.4,2.2c.74,.22,1.4,.65,1.9,1.23l5.07,5.91c.5,.58,.82,1.29,.92,2.04l1.11,7.77c.11,.75,0,1.52-.32,2.21l-3.22,7.13c-.32,.7-.83,1.29-1.47,1.71l-6.5,4.22c-.65,.42-1.41,.65-2.18,.65h-7.71c-.77,0-1.53-.22-2.18-.65l-6.5-4.22c-.64-.42-1.15-1.01-1.47-1.71l-3.22-7.13c-.31-.69-.42-1.46-.32-2.21l1.11-7.77c.11-.75,.43-1.46,.92-2.04l5.07-5.91c.5-.58,1.16-1.01,1.9-1.23l7.4-2.2c.74-.22,1.53-.22,2.28,0Z" fill="#a67c52"/></svg>